<svg width="80" height="36" viewBox="0 0 80 36" fill="none" xmlns="http://www.w3.org/2000/svg">
<path d="M60.1695 24.792C60.1697 26.0003 60.1697 27.1599 60.1697 28.3565C59.1388 28.3565 58.1239 28.3565 57.0796 28.3565C57.0796 25.6788 57.0796 23.0213 57.0796 20.2957C57.2524 20.2957 57.4245 20.2958 57.5965 20.2957C59.7972 20.2955 61.998 20.2987 64.1986 20.2927C64.7951 20.2911 65.0772 20.033 65.1067 19.505C65.1401 18.9051 64.8407 18.6033 64.1682 18.602C61.9838 18.5978 59.7994 18.6038 57.615 18.6059C57.4408 18.606 57.2666 18.6059 57.0706 18.6059C57.0706 17.5285 57.0706 16.5036 57.0706 15.4582C57.1239 15.4418 57.1832 15.4075 57.2423 15.4077C59.5895 15.4156 61.9367 15.4243 64.2839 15.4401C64.5765 15.442 64.8718 15.464 65.1608 15.5093C67.4657 15.87 68.657 17.6109 68.253 19.9894C68.0136 21.3988 67.2261 22.3569 65.936 22.9235C65.7887 22.9882 65.6396 23.0486 65.4308 23.1364C66.5206 24.884 67.5935 26.6047 68.7077 28.3916C67.8329 28.3916 67.0017 28.3055 66.1962 28.4128C65.1196 28.5563 64.5171 28.152 64.043 27.196C63.4502 26.0004 62.6914 24.8882 62.0238 23.7286C61.8589 23.4422 61.6839 23.3084 61.336 23.3265C60.2533 23.383 60.1391 23.0633 60.1679 24.4981C60.1695 24.5798 60.1689 24.6616 60.1695 24.792Z" fill="white"/>
<path d="M47.7002 15.42C48.1343 15.355 48.1075 15.6175 48.1073 15.8727C48.1056 18.6348 48.1065 21.3969 48.1075 24.1591C48.1075 24.3388 48.1117 24.5185 48.1172 24.6982C48.1295 25.099 48.3348 25.2864 48.7367 25.2853C49.8449 25.2821 50.9532 25.2818 52.0613 25.2942C52.4141 25.2981 52.5679 25.1237 52.5944 24.7995C52.6064 24.6533 52.6017 24.5056 52.6013 24.3586C52.5938 21.5474 52.5857 18.7363 52.5778 15.9252C52.5774 15.7661 52.5778 15.6071 52.5778 15.4234C53.6642 15.4234 54.6997 15.4234 55.7607 15.4234C55.77 15.5615 55.7862 15.6888 55.7861 15.816C55.7846 18.8233 55.785 21.8306 55.7743 24.8378C55.7728 25.2612 55.736 25.687 55.6816 26.1073C55.4907 27.5813 54.8249 28.3382 53.3488 28.3872C51.2861 28.4558 49.2142 28.4147 47.153 28.2994C45.8354 28.2257 45.2257 27.542 44.9994 26.2272C44.9221 25.7781 44.8718 25.3183 44.8702 24.8631C44.8592 21.7422 44.8644 18.6213 44.8644 15.4201C45.7796 15.4201 46.7175 15.4201 47.7002 15.42Z" fill="white"/>
<path d="M76.8117 18.4121C76.8117 17.3997 76.8117 16.4364 76.8117 15.4379C77.8628 15.4379 78.8967 15.4379 79.9668 15.4379C79.9778 15.5785 79.9982 15.7191 79.9983 15.8597C79.9988 18.8665 80.0055 21.8733 79.9883 24.8799C79.985 25.4485 79.9261 26.0243 79.8203 26.583C79.6346 27.5636 79.0553 28.2552 78.0345 28.3143C76.2327 28.4187 74.4253 28.4358 72.6199 28.4583C72.1023 28.4647 71.5781 28.3946 71.0663 28.3059C70.0016 28.1212 69.445 27.5852 69.2729 26.5214C69.1639 25.8474 69.1174 25.1571 69.1121 24.4736C69.0889 21.4997 69.091 18.5256 69.0849 15.5516C69.0848 15.5206 69.0988 15.4896 69.1142 15.4253C70.1542 15.4253 71.2019 15.4253 72.2946 15.4253C72.2946 15.6086 72.2946 15.7676 72.2946 15.9265C72.2945 18.7372 72.2936 21.5478 72.2947 24.3585C72.2951 25.2531 72.338 25.2939 73.2284 25.2936C74.206 25.2932 75.1837 25.2954 76.1613 25.2907C76.7381 25.288 76.8164 25.2161 76.8172 24.6381C76.8198 22.5791 76.8142 20.5201 76.8117 18.4121Z" fill="white"/>
<path d="M30.0784 16.7883C31.5634 14.4592 33.6401 13.1534 36.3595 12.9307C38.1332 12.7855 39.8481 13.0346 41.4075 13.9469C41.9755 14.2792 42.4788 14.7229 43.0682 15.1575C42.2309 16.055 41.4681 16.8727 40.6693 17.7291C39.456 16.5821 38.0424 16.0896 36.4113 16.247C35.5062 16.3343 34.71 16.6756 34.0252 17.2689C32.5589 18.5393 32.0749 20.9201 32.9131 22.8107C33.4418 24.0033 34.3087 24.8519 35.5705 25.2433C36.7911 25.6218 38.0159 25.484 39.2779 25.1797C39.2779 26.3472 39.2779 27.4663 39.2779 28.5903C36.8457 29.5499 32.8682 28.4271 30.9272 26.2254C28.749 23.7547 28.3914 19.8816 30.0784 16.7883Z" fill="white"/>
<path d="M51.8514 9.81971C51.9571 9.81072 52.0627 9.80172 52.2407 9.82214C52.4749 9.86014 52.637 9.87899 52.7986 9.87571C54.2124 9.84707 55.6261 9.79182 57.0399 9.79004C58.2255 9.78854 59.4112 9.84712 60.5968 9.88314C60.6614 9.88511 60.725 9.92433 60.9216 9.99143C60.7077 10.0376 60.6363 10.0625 60.5637 10.0673C59.5289 10.1353 58.4871 10.1465 57.4606 10.2785C55.6658 10.5093 53.8631 10.7317 52.0954 11.1074C49.5811 11.6417 47.1682 12.5206 44.8479 13.6383C44.5003 13.8057 44.1668 13.9316 43.7945 13.7342C43.7945 13.7342 43.8119 13.7253 43.8032 13.6978C43.7189 13.5883 43.6527 13.4943 43.5662 13.426C42.5592 12.631 41.4133 12.1012 40.1969 11.7357C39.7343 11.5967 39.2326 11.589 38.7487 11.5215C38.7024 11.5216 38.6561 11.5218 38.5638 11.4748C37.7171 11.1654 36.9052 11.3721 36.0983 11.3749C36.068 11.375 36.0379 11.4431 36.0077 11.4795C35.9622 11.4935 35.9167 11.5074 35.8038 11.4963C35.2278 11.4377 34.7192 11.4041 34.2107 11.3705C34.2107 11.3705 34.2235 11.3671 34.2182 11.3385C33.8446 10.7149 33.438 10.1606 32.7417 9.91322C32.7417 9.91322 32.7566 9.88254 32.7493 9.86368C32.3513 9.57282 31.9606 9.3008 31.5698 9.02878C31.5698 9.02878 31.5883 9.00606 31.5772 8.98388C30.8081 8.56854 30.0872 8.05019 29.2836 7.80998C27.8909 7.39366 26.4524 7.12128 25.0219 6.84799C24.4939 6.74713 23.934 6.81431 23.3887 6.80485C23.3434 6.80735 23.298 6.80985 23.2059 6.76752C23.0697 6.69511 22.9809 6.64475 22.8912 6.64328C20.5352 6.60439 18.1939 6.72508 15.8933 7.29265C15.7746 7.32194 15.6424 7.29642 15.5165 7.29642C15.5864 7.14306 15.6618 7.07687 15.7487 7.05335C17.3891 6.60939 19.0316 6.1737 20.672 5.72966C22.5169 5.23024 24.4091 5.12318 26.3034 5.07926C27.3568 5.05484 28.413 5.12333 29.4671 5.16798C31.4587 5.25234 33.3807 5.68902 35.2552 6.35308C35.677 6.50251 36.0967 6.65766 36.5174 6.81017C36.5174 6.81017 36.5064 6.81867 36.5154 6.84633C37.0127 7.17762 37.501 7.48125 37.9893 7.78488C37.9893 7.78488 37.9758 7.8105 37.9861 7.82476C38.0302 7.84951 38.0638 7.85999 38.0975 7.87048C38.0975 7.87048 38.0834 7.89974 38.0893 7.92079C38.2232 8.02091 38.3512 8.09998 38.4793 8.17904C38.4793 8.17904 38.466 8.19284 38.4758 8.21185C38.519 8.24264 38.5525 8.25443 38.5859 8.26622C38.5859 8.26622 38.5462 8.27774 38.5647 8.30626C39.2436 9.12309 40.1683 9.42903 41.1084 9.66827C41.6836 9.81467 42.2846 9.88741 42.8784 9.92635C43.778 9.98535 44.6815 9.98612 45.5833 10.0116C46.0794 10.0058 46.5755 9.99992 47.1506 10.0227C48.6975 10.025 50.1654 10.0008 51.6331 9.96604C51.707 9.96429 51.7787 9.8706 51.8514 9.81971Z" fill="white"/>
<path d="M27.0009 18.4176C26.3328 18.418 25.7124 18.439 25.0941 18.4109C24.7232 18.3939 24.6264 18.5145 24.6286 18.8835C24.6465 21.8102 24.6428 24.7371 24.6448 27.6638C24.6454 28.4091 24.6438 28.4091 23.8953 28.4081C23.1616 28.4071 22.427 28.3832 21.6946 28.4138C21.2659 28.4317 21.1324 28.2942 21.1348 27.8604C21.1513 24.8846 21.1437 21.9087 21.1438 18.9329C21.1439 18.7873 21.1438 18.6418 21.1438 18.4131C20.4374 18.4131 19.7601 18.4125 19.0827 18.4132C17.8147 18.4144 17.8139 18.4147 17.8094 17.1363C17.8074 16.5497 17.8091 15.9631 17.8091 15.3257C18.0214 15.3142 18.1945 15.2967 18.3676 15.2967C21.4002 15.2956 24.4328 15.306 27.4652 15.2877C27.9383 15.2848 28.0965 15.4279 28.0705 15.9002C28.0346 16.5522 28.0268 17.21 28.0711 17.861C28.1036 18.3387 27.9193 18.4739 27.4893 18.4208C27.3448 18.4029 27.1962 18.4177 27.0009 18.4176Z" fill="white"/>
<path d="M37.3926 35.8553C37.2484 35.8571 37.144 35.8571 36.9173 35.8571C37.0934 35.7447 37.1636 35.6863 37.2439 35.6506C39.2443 34.7605 40.4144 33.1811 40.5394 31.0393C40.6855 28.5374 40.5736 26.0204 40.5736 23.4665C39.1425 23.4665 37.6998 23.4665 36.221 23.4665C36.221 22.4548 36.221 21.4855 36.221 20.4869C38.6456 20.4869 41.0811 20.4869 43.5742 20.4869C43.5742 20.9544 43.5744 21.4217 43.5742 21.889C43.5731 24.1434 43.533 26.3986 43.5796 28.652C43.6569 32.391 41.32 35.3852 37.3926 35.8553Z" fill="white"/>
<path d="M10.5688 15.2817C12.345 15.2825 14.0725 15.2919 15.7997 15.2773C16.1922 15.274 16.3669 15.3798 16.33 15.8032C16.296 16.1923 16.3114 16.5877 16.3312 16.979C16.3476 17.3022 16.2123 17.4137 15.9015 17.4094C14.8751 17.3953 13.8483 17.4101 12.8222 17.3871C12.0349 17.3694 11.5737 17.4885 11.5297 18.3776C11.5244 18.4842 11.3104 18.6667 11.1913 18.6682C9.51312 18.6898 7.83462 18.6839 6.15622 18.6908C5.8768 18.6919 5.80697 18.5509 5.78431 18.2965C5.72748 17.6587 5.49031 17.4263 4.84959 17.4149C3.77441 17.3956 2.69832 17.3881 1.62343 17.4124C1.18518 17.4223 1.04336 17.2677 1.08127 16.8433C1.11313 16.4867 1.11329 16.1223 1.0793 15.766C1.04132 15.3679 1.19173 15.2703 1.57363 15.2722C4.55566 15.287 7.53778 15.2811 10.5688 15.2817Z" fill="white"/>
<path d="M37.0406 5.59545C35.6042 3.47703 36.5759 0.722886 38.9037 0.224703C40.5183 -0.120838 42.0072 0.648557 42.6066 2.13817C43.2196 3.66162 42.6804 5.56305 41.4043 6.37822C40.0333 7.254 38.3269 7.00821 37.1907 5.77095C37.1466 5.72288 37.1054 5.67205 37.0406 5.59545Z" fill="white"/>
<path d="M36.0984 32.719C36.0984 32.719 36.0686 32.7445 36.0102 32.7419C35.7998 32.7901 35.6468 32.8381 35.496 32.8922C34.2489 33.3391 33.0166 33.8346 31.7506 34.2183C30.8738 34.4841 29.9551 34.6249 29.047 34.7702C27.837 34.9638 26.6193 35.1097 25.4035 35.2646C25.3569 35.2705 25.295 35.156 25.2403 35.0976C25.66 34.9431 26.0797 34.7885 26.5679 34.6206C27.7715 34.3595 28.7727 33.8174 29.7339 33.1882C29.7435 33.1819 29.7412 33.1575 29.7445 33.1415C29.7445 33.1415 29.7662 33.115 29.8207 33.1162C30.3113 32.8146 30.7475 32.5119 31.1836 32.2092C31.1836 32.2092 31.1975 32.2336 31.2239 32.2304C31.499 32.0065 31.7475 31.7859 31.9961 31.5653C31.9961 31.5653 31.9938 31.5587 32.0268 31.5572C32.0961 31.5139 32.1325 31.472 32.1689 31.4302C32.1689 31.4302 32.1725 31.4423 32.2003 31.4371C32.3782 31.2783 32.5284 31.1247 32.6786 30.9712C32.6786 30.9712 32.6774 30.9697 32.7088 30.9668C32.7861 30.9037 32.832 30.8434 32.878 30.7832C32.878 30.7832 32.8758 30.7755 32.9094 30.7727C32.9736 30.7247 33.0043 30.6794 33.0349 30.6342C33.0349 30.6342 33.0408 30.6457 33.0681 30.6437C33.1528 30.5569 33.2102 30.4721 33.2676 30.3872C33.2676 30.3872 33.2647 30.3814 33.2978 30.3787C33.3579 30.3298 33.3848 30.2837 33.4118 30.2376C33.421 30.2537 33.4302 30.2699 33.4577 30.263C33.5025 30.188 33.529 30.136 33.5556 30.0841C33.5556 30.0841 33.5579 30.0868 33.5916 30.0808C33.847 30.0463 34.0781 29.9631 34.2888 29.9993C35.0175 30.1247 35.7261 30.4168 36.4867 30.2194C36.5938 30.2193 36.7008 30.2192 36.8624 30.2636C37.4889 30.2965 38.0615 30.2678 38.6328 30.2845C38.7851 30.289 38.9333 30.4326 39.0834 30.5123C39.0834 30.5123 39.0703 30.4969 39.0388 30.5055C38.9238 30.639 38.8402 30.764 38.7567 30.8889C38.7567 30.8889 38.7475 30.8761 38.7219 30.8795C38.643 30.9621 38.5898 31.0412 38.5366 31.1203C38.5366 31.1203 38.5252 31.1486 38.4787 31.1544C38.3516 31.2397 38.271 31.3193 38.1904 31.3988C38.1904 31.3988 38.1833 31.4012 38.152 31.3987C38.0153 31.4984 37.9099 31.6006 37.8045 31.7028C37.8045 31.7028 37.7796 31.7058 37.7633 31.7003C37.7255 31.7236 37.7041 31.7524 37.6827 31.7812C37.6827 31.7812 37.6815 31.7712 37.6504 31.7696C37.4419 31.8995 37.2644 32.0309 37.0868 32.1624C37.0868 32.1624 37.0854 32.1531 37.0525 32.155C36.7126 32.3443 36.4055 32.5317 36.0984 32.719Z" fill="white"/>
<path d="M21.5196 9.02413C21.5956 9.023 21.6716 9.02186 21.7986 9.0666C22.278 9.16996 22.7054 9.23793 23.1352 9.28314C25.0667 9.48632 26.9252 9.94821 28.6769 10.8102C29.0629 11.0001 29.4702 11.1465 29.8676 11.3129C29.8676 11.3129 29.8478 11.3448 29.8644 11.3599C29.9402 11.3909 29.9993 11.4067 30.0584 11.4225C30.0584 11.4225 30.0457 11.4318 30.056 11.458C30.1404 11.5773 30.2143 11.6704 30.3222 11.806C30.1675 11.806 30.071 11.8244 29.9843 11.8031C29.3118 11.6381 28.6471 11.4346 27.9682 11.3049C27.4277 11.2017 26.8708 11.1856 26.3212 11.1308C26.2441 11.1255 26.1671 11.1203 26.0403 11.0661C25.3732 10.9301 24.7578 10.8223 24.1378 10.7627C23.6637 10.7171 23.1838 10.7326 22.7065 10.7209C22.6597 10.7223 22.6128 10.7238 22.5169 10.6787C21.8767 10.577 21.2862 10.4843 20.6943 10.4742C19.315 10.4506 17.9344 10.4461 16.5554 10.4776C16.0592 10.4889 15.5658 10.6253 15.0712 10.7045C14.9961 10.7184 14.921 10.7323 14.7759 10.718C13.3952 10.8475 12.0843 11.0045 10.7737 11.1637C10.5667 11.1888 10.3608 11.2237 10.1544 11.2541C10.1454 11.2119 10.1363 11.1698 10.1273 11.1276C10.1909 11.0948 10.2512 11.0508 10.3186 11.0306C11.8058 10.5846 13.2814 10.091 14.7862 9.71571C15.7334 9.47948 16.7259 9.42907 17.6956 9.2792C18.0627 9.22247 18.4228 9.1205 18.7861 9.03916C18.8921 9.02879 18.9982 9.01842 19.1768 9.03767C20.0061 9.05291 20.7628 9.03852 21.5196 9.02413Z" fill="white"/>
<path d="M11.634 22.1378C11.634 23.2285 11.634 23.2302 10.5794 23.2315C9.13155 23.2333 7.68356 23.2227 6.23586 23.2392C5.87194 23.2434 5.75341 23.1274 5.76881 22.7607C5.7955 22.1256 5.78503 21.4881 5.76587 20.8524C5.75699 20.5575 5.85421 20.4495 6.15294 20.448C7.79506 20.4398 9.43715 20.4199 11.0791 20.3959C11.4777 20.39 11.68 20.5225 11.6402 20.9641C11.6067 21.3363 11.6337 21.7139 11.634 22.1378Z" fill="white"/>
<path d="M57.8103 6.56984C59.4668 6.88543 61.0502 7.3019 62.5786 7.90813C56.5032 6.60697 50.3825 6.41947 44.221 7.03819C48.7091 6.01936 53.2198 5.71894 57.8103 6.56984Z" fill="white"/>
<path d="M0.132819 24.0141C0.0714527 23.4203 0.0350449 22.8405 0.0358376 22.2607C0.0359338 22.1898 0.233439 22.0618 0.34291 22.0579C0.928034 22.0372 1.51435 22.0533 2.10005 22.0441C2.35615 22.0402 2.43836 22.1537 2.43692 22.3993C2.42927 23.7049 2.4253 25.0106 2.43527 26.3161C2.43775 26.6407 2.30476 26.762 1.99705 26.7367C1.88392 26.7274 1.7679 26.7242 1.65569 26.7382C1.29963 26.7827 1.16864 26.6529 1.18012 26.2755C1.20687 25.396 1.18865 24.5151 1.16305 23.6068C1.02476 24.2584 0.509755 23.9219 0.132819 24.0141Z" fill="white"/>
<path d="M16.2474 23.42C16.2434 24.3872 16.2157 25.3176 16.2488 26.2459C16.2687 26.8069 15.9198 26.7158 15.5793 26.7423C15.188 26.7728 15.0393 26.6544 15.0426 26.2326C15.0523 24.9947 15.0172 23.7564 14.9977 22.5184C14.993 22.2164 15.0686 22.0221 15.4368 22.0383C15.9561 22.0612 16.4782 22.0615 16.9973 22.0356C17.3535 22.0178 17.4523 22.1658 17.431 22.4939C17.411 22.8024 17.4341 23.1134 17.4289 23.4232C17.4242 23.7001 17.5287 24.0359 17.0308 24.009C16.6512 23.9886 16.2401 24.079 16.3348 23.4686C16.3412 23.4273 16.3105 23.3801 16.297 23.3356C16.2811 23.3512 16.2652 23.3668 16.2474 23.42Z" fill="white"/>
<path d="M12.6476 24.8874C12.6473 24.0585 12.6563 23.2783 12.6422 22.4986C12.6363 22.1705 12.7412 22.0277 13.0894 22.0353C14.428 22.0647 14.1624 21.8739 14.1784 23.0974C14.192 24.1401 14.1755 25.1834 14.1979 26.2258C14.206 26.6027 14.0889 26.7513 13.6993 26.7413C12.4842 26.7099 12.6507 26.8742 12.6463 25.7184C12.6453 25.4577 12.6471 25.197 12.6476 24.8874Z" fill="white"/>
<path d="M4.70449 23.9061C4.70558 24.7378 4.69792 25.5206 4.712 26.3031C4.71768 26.6183 4.60044 26.7428 4.28398 26.7355C3.12101 26.7086 3.26007 26.885 3.25978 25.7365C3.25952 24.7093 3.27381 23.6815 3.24401 22.655C3.23097 22.2056 3.33472 22.0057 3.83129 22.0284C4.86657 22.0758 4.67837 21.9226 4.70272 22.9276C4.71022 23.2373 4.70427 23.5472 4.70449 23.9061Z" fill="white"/>
<path d="M65.7813 33.2766C65.6462 33.2949 65.5484 33.3012 65.4512 33.2966C65.4059 33.2944 65.3616 33.2709 65.2706 33.2428C65.2706 32.5617 65.2706 31.8726 65.2706 31.0421C64.9193 31.5917 64.6463 32.0187 64.313 32.5404C64.0204 32.0682 63.781 31.6817 63.5415 31.2953C63.5083 31.3033 63.475 31.3113 63.4418 31.3193C63.4418 31.9715 63.4418 32.6238 63.4418 33.2946C63.2209 33.2946 63.0621 33.2946 62.8681 33.2946C62.8681 32.2016 62.8681 31.1148 62.8681 30.0044C63.2082 29.8499 63.4389 29.9746 63.6191 30.3238C63.8278 30.7283 64.0763 31.112 64.3434 31.5658C64.5753 31.1632 64.8105 30.8148 64.9836 30.4376C65.1573 30.0591 65.3837 29.8672 65.8189 30.0168C65.8189 31.0895 65.8189 32.1748 65.7813 33.2766Z" fill="white"/>
<path d="M36.4996 6.78287C36.0967 6.65766 35.677 6.50251 35.2552 6.35308C33.3807 5.68902 31.4587 5.25234 29.4671 5.16798C28.413 5.12333 27.3568 5.05484 26.3034 5.07926C24.4091 5.12318 22.5169 5.23024 20.672 5.72966C19.0316 6.1737 17.3891 6.60939 15.7487 7.05335C15.6618 7.07687 15.5864 7.14306 15.5165 7.29642C15.6424 7.29642 15.7746 7.32194 15.8933 7.29265C18.1939 6.72508 20.5352 6.60439 22.8912 6.64328C22.9809 6.64475 23.0697 6.69511 23.1732 6.75693C21.4826 6.87075 19.766 6.85314 18.0765 7.05911C16.5906 7.24026 15.1351 7.67192 13.666 7.99213C13.4954 8.02931 13.3237 8.06131 13.1109 8.01371C13.3689 7.89579 13.6242 7.77145 13.8853 7.66088C19.078 5.46196 24.47 4.49863 30.1001 5.07073C32.3116 5.29545 34.4801 5.71588 36.4996 6.78287ZM14.8827 7.37746C14.8499 7.41612 14.8172 7.45478 14.7845 7.49345C14.843 7.49611 14.9015 7.49877 14.9599 7.50144C14.9516 7.45461 14.9432 7.40779 14.8827 7.37746ZM14.4664 7.59157C14.4743 7.57776 14.4822 7.56396 14.4901 7.55015C14.4771 7.55608 14.4642 7.56201 14.4664 7.59157Z" fill="white"/>
<path d="M43.8092 13.7637C44.1668 13.9316 44.5003 13.8057 44.8479 13.6383C47.1682 12.5206 49.5811 11.6417 52.0954 11.1074C53.8631 10.7317 55.6658 10.5093 57.4606 10.2785C58.4871 10.1465 59.5289 10.1353 60.5637 10.0673C60.6363 10.0625 60.7077 10.0376 60.9216 9.99143C60.725 9.92433 60.6614 9.88511 60.5968 9.88314C59.4112 9.84712 58.2255 9.78854 57.0399 9.79004C55.6261 9.79182 54.2124 9.84707 52.7986 9.87571C52.637 9.87899 52.4749 9.86014 52.2802 9.82882C55.9732 9.66428 59.6998 9.49953 63.4086 10.0744C63.4663 10.0834 63.5236 10.0956 63.5675 10.007C61.0602 10.1839 58.5447 10.2843 56.0476 10.5553C52.0697 10.987 48.2726 12.1125 44.6691 13.8696C44.3622 14.0192 44.0754 14.1612 43.8092 13.7637Z" fill="white"/>
<path d="M48.8633 31.7724C48.9858 31.6686 49.1021 31.5632 49.2296 31.5471C49.4682 31.5168 49.7133 31.5384 50.0161 31.5384C50.0161 31.826 50.0161 32.098 50.0161 32.37C50.0161 32.6302 50.0161 32.8905 50.0161 33.1417C49.1049 33.5603 48.0268 33.4181 47.5136 32.8231C47.0456 32.2806 47.0091 31.2884 47.4344 30.6701C47.8809 30.0208 48.902 29.7779 49.8716 30.0889C49.8716 30.2772 49.8716 30.4641 49.8716 30.6074C49.4539 30.5831 49.0624 30.5007 48.6887 30.5511C47.9538 30.6503 47.5917 31.2536 47.7589 31.9901C47.8991 32.608 48.6341 33.0412 49.2543 32.7985C49.409 32.738 49.4483 32.381 49.5082 32.2377C49.2853 31.927 48.8424 32.3055 48.8633 31.7724Z" fill="white"/>
<path d="M2.43499 19.3981C2.43584 19.9036 2.42647 20.3612 2.43769 20.8183C2.44398 21.0746 2.33875 21.1644 2.09008 21.1597C1.52017 21.1487 0.949719 21.1456 0.379919 21.1584C0.109526 21.1645 -0.0174935 21.0728 0.00978341 20.7924C0.020807 20.6792 0.0254919 20.562 0.00951398 20.4499C-0.0456249 20.0633 0.142099 19.9583 0.489723 19.9976C0.663823 20.0172 0.841955 20.001 1.10825 20.001C1.10825 19.6076 1.13219 19.2563 1.102 18.9097C1.06674 18.5049 1.1642 18.3077 1.62386 18.3258C2.61504 18.365 2.42093 18.2753 2.43499 19.3981Z" fill="white"/>
<path d="M14.9872 19.6886C14.9868 19.5096 14.9864 19.3793 14.9858 19.2489C14.9816 18.2646 14.9811 18.2726 15.9445 18.3238C16.2099 18.3379 16.3329 18.4291 16.3243 18.7015C16.3146 19.0108 16.3356 19.3214 16.3178 19.63C16.2991 19.9528 16.3915 20.0965 16.7514 20.0904C17.4546 20.0783 17.5197 20.1649 17.4107 20.8724C17.3941 20.98 17.2284 21.1418 17.1262 21.146C16.5099 21.1715 15.8914 21.1715 15.2751 21.145C15.1762 21.1408 15.0128 20.9672 15.0029 20.8604C14.9683 20.4888 14.9881 20.1121 14.9872 19.6886Z" fill="white"/>
<path d="M12.651 20.92C12.6467 20.1911 12.6557 19.5065 12.6391 18.8225C12.6309 18.4843 12.7152 18.3175 13.0998 18.3237C14.3971 18.3444 14.1477 18.2154 14.1783 19.3736C14.1907 19.8458 14.1705 20.319 14.186 20.791C14.1951 21.0676 14.0891 21.1738 13.8168 21.1595C13.5414 21.145 13.2627 21.1749 12.9893 21.1476C12.8725 21.136 12.7652 21.0284 12.651 20.92Z" fill="white"/>
<path d="M3.25172 20.5557C3.25138 19.9368 3.2624 19.3646 3.24641 18.7931C3.23732 18.4683 3.33355 18.3271 3.68741 18.3212C4.69782 18.3044 4.69888 18.2899 4.70458 19.314C4.70739 19.8206 4.72269 20.3283 4.69023 20.8328C4.68281 20.9482 4.51107 21.1334 4.39873 21.1465C4.04728 21.1875 3.68807 21.1616 3.28061 21.1616C3.26968 20.9498 3.26072 20.7763 3.25172 20.5557Z" fill="white"/>
<path d="M18.743 9.0309C18.4228 9.1205 18.0627 9.22247 17.6956 9.2792C16.7259 9.42907 15.7334 9.47948 14.7862 9.71571C13.2814 10.091 11.8058 10.5846 10.3186 11.0306C10.2512 11.0508 10.1909 11.0948 10.1273 11.1276C10.1363 11.1698 10.1454 11.2119 10.1544 11.2541C10.3608 11.2237 10.5667 11.1888 10.7737 11.1637C12.0843 11.0045 13.3952 10.8475 14.7377 10.7126C12.2188 10.967 9.71012 11.3961 7.30017 12.3056C7.05894 12.3967 6.78908 12.4114 6.61633 12.4452C7.48271 12.0621 8.42022 11.6076 9.38783 11.2308C10.3865 10.842 11.4041 10.4929 12.4326 10.1926C13.4454 9.89683 14.4739 9.63876 15.5108 9.44733C16.5641 9.25286 17.6361 9.16 18.743 9.0309ZM9.83803 11.4071C9.8503 11.3967 9.86457 11.3879 9.87427 11.3754C9.88363 11.3634 9.88827 11.3477 9.89498 11.3337C9.7611 11.3337 9.62722 11.3337 9.49333 11.3337C9.49551 11.3661 9.49768 11.3984 9.49986 11.4308C9.59321 11.4308 9.68656 11.4308 9.83803 11.4071Z" fill="white"/>
<path d="M56.0039 32.2736C55.818 31.82 55.6455 31.4043 55.4431 31.0037C55.2748 30.6707 55.0713 30.3555 54.8662 30.0029C55.2347 29.8634 55.5086 29.8958 55.7025 30.2812C55.8828 30.6396 56.1001 30.9793 56.3289 31.3752C56.5526 31.0111 56.7857 30.6982 56.9469 30.3517C57.1265 29.9656 57.3881 29.8777 57.8006 30.0034C57.2776 31.0505 56.2578 31.9114 56.6507 33.2939C56.3918 33.2939 56.223 33.2939 56.0043 33.2939C56.0043 32.9661 56.0043 32.642 56.0039 32.2736Z" fill="white"/>
<path d="M25.2132 35.0847C25.2951 35.156 25.3569 35.2705 25.4035 35.2646C26.6193 35.1097 27.837 34.9638 29.047 34.7702C29.9551 34.6249 30.8738 34.4841 31.7506 34.2183C33.0166 33.8346 34.2489 33.3391 35.496 32.8922C35.6468 32.8381 35.7998 32.7901 35.9906 32.7426C34.4623 33.6133 32.7762 34.1672 31.0311 34.4965C29.1444 34.8526 27.2378 35.1049 25.3365 35.3791C25.0056 35.4268 24.6581 35.3511 24.3182 35.3504C24.246 35.3503 24.1737 35.4286 24.0956 35.4331C24.4591 35.3127 24.8226 35.1923 25.2132 35.0847Z" fill="white"/>
<path d="M23.4284 6.81641C23.934 6.81431 24.4939 6.74713 25.0219 6.84799C26.4524 7.12128 27.8909 7.39366 29.2836 7.80998C30.0872 8.05019 30.808 8.56854 31.5701 8.9967C29.0825 7.51905 26.3186 7.01329 23.4284 6.81641Z" fill="white"/>
<path d="M29.8495 11.2865C29.4702 11.1465 29.0629 11.0001 28.6769 10.8102C26.9252 9.94821 25.0667 9.48632 23.1352 9.28314C22.7054 9.23793 22.2781 9.16996 21.8346 9.07942C24.6572 9.17678 27.3531 9.8223 29.8495 11.2865Z" fill="white"/>
<path d="M15.1148 10.7132C15.5659 10.6253 16.0592 10.4889 16.5554 10.4776C17.9344 10.4461 19.315 10.4506 20.6943 10.4742C21.2862 10.4843 21.8767 10.577 22.4848 10.6637C20.3454 10.6866 18.1891 10.6759 16.0329 10.6718C15.7414 10.6712 15.4498 10.7044 15.1148 10.7132Z" fill="white"/>
<path d="M45.5404 10.0005C44.6815 9.98612 43.778 9.98535 42.8784 9.92635C42.2846 9.88741 41.6836 9.81467 41.1084 9.66827C40.1683 9.42903 39.2436 9.12309 38.5843 8.29954C40.2159 9.67321 42.2445 9.73727 44.2302 9.93782C44.6501 9.98023 45.0749 9.97352 45.5404 10.0005Z" fill="white"/>
<path d="M26.3574 11.1441C26.8708 11.1856 27.4277 11.2017 27.9682 11.3049C28.6471 11.4346 29.3118 11.6381 29.9843 11.8031C30.071 11.8244 30.1675 11.806 30.3222 11.806C30.2143 11.6704 30.1404 11.5773 30.0596 11.451C30.4882 11.6721 30.9237 11.9265 31.3591 12.1808C31.3425 12.1931 31.3258 12.2054 31.3092 12.2177C29.6706 11.8643 28.0321 11.5109 26.3574 11.1441Z" fill="white"/>
<path d="M38.7828 11.5355C39.2325 11.589 39.7343 11.5967 40.1969 11.7357C41.4133 12.1012 42.5592 12.631 43.5662 13.426C43.6527 13.4943 43.7188 13.5883 43.7967 13.7052C42.3061 12.626 40.6665 11.8476 38.7828 11.5355Z" fill="white"/>
<path d="M51.8066 9.81091C51.7786 9.8706 51.707 9.96429 51.6331 9.96604C50.1654 10.0008 48.6975 10.025 47.1962 10.0299C48.6957 9.93973 50.2288 9.87092 51.8066 9.81091Z" fill="white"/>
<path d="M29.7099 33.1461C29.7412 33.1575 29.7435 33.1819 29.7339 33.1882C28.7727 33.8174 27.7715 34.3595 26.5987 34.6081C27.599 34.123 28.6371 33.6369 29.7099 33.1461Z" fill="white"/>
<path d="M22.7465 10.7336C23.1839 10.7326 23.6637 10.7171 24.1378 10.7627C24.7578 10.8223 25.3732 10.9301 26.007 11.0461C24.9444 10.9655 23.8654 10.8559 22.7465 10.7336Z" fill="white"/>
<path d="M36.0508 11.4881C36.0379 11.4431 36.068 11.375 36.0983 11.3749C36.9052 11.3721 37.7171 11.1654 38.532 11.4603C37.7288 11.4942 36.9114 11.4955 36.0508 11.4881Z" fill="white"/>
<path d="M36.448 30.2076C35.7262 30.4168 35.0175 30.1247 34.2888 29.9993C34.0781 29.9631 33.8471 30.0463 33.5903 30.0797C33.6758 29.7958 33.8629 29.75 34.1728 29.8159C34.9118 29.973 35.6629 30.0728 36.448 30.2076Z" fill="white"/>
<path d="M39.1109 30.4952C38.9333 30.4326 38.7851 30.289 38.6328 30.2845C38.0615 30.2678 37.4889 30.2965 36.9008 30.2758C37.6832 30.2075 38.4816 30.1715 39.3353 30.1329C39.2575 30.2695 39.198 30.3738 39.1109 30.4952Z" fill="white"/>
<path d="M32.7565 9.94168C33.438 10.1606 33.8446 10.7149 34.2168 11.345C33.7375 10.9101 33.2544 10.4401 32.7565 9.94168Z" fill="white"/>
<path d="M21.4804 9.01283C20.7629 9.03852 20.0061 9.05291 19.2163 9.04514C19.9359 9.01584 20.6886 9.00868 21.4804 9.01283Z" fill="white"/>
<path d="M37.9743 7.75653C37.5009 7.48125 37.0126 7.17762 36.5177 6.83976C36.9938 7.11308 37.4766 7.42063 37.9743 7.75653Z" fill="white"/>
<path d="M34.2215 11.4008C34.7192 11.4041 35.2278 11.4377 35.7678 11.4923C35.5181 11.5671 35.226 11.5894 34.9584 11.6826C34.6289 11.7973 34.4074 11.7097 34.2215 11.4008Z" fill="white"/>
<path d="M31.1504 32.2177C30.7475 32.5119 30.3114 32.8146 29.8377 33.115C30.2392 32.8172 30.6782 32.5217 31.1504 32.2177Z" fill="white"/>
<path d="M31.5868 9.05567C31.9605 9.3008 32.3513 9.57282 32.7438 9.87983C32.365 9.6374 31.9844 9.35998 31.5868 9.05567Z" fill="white"/>
<path d="M36.1329 32.7162C36.4055 32.5317 36.7126 32.3443 37.0565 32.1576C36.7846 32.3433 36.4759 32.5284 36.1329 32.7162Z" fill="white"/>
<path d="M31.9647 31.5755C31.7476 31.7859 31.499 32.0065 31.2149 32.2197C31.4307 32.0034 31.682 31.7946 31.9647 31.5755Z" fill="white"/>
<path d="M37.1206 32.1584C37.2643 32.0309 37.4419 31.8995 37.6549 31.7718C37.5118 31.9018 37.3331 32.0281 37.1206 32.1584Z" fill="white"/>
<path d="M32.6482 30.9816C32.5284 31.1247 32.3782 31.2783 32.194 31.4362C32.3126 31.291 32.4652 31.1415 32.6482 30.9816Z" fill="white"/>
<path d="M38.4657 8.15084C38.3512 8.09998 38.2232 8.02091 38.0969 7.90584C38.2165 7.95411 38.3343 8.03837 38.4657 8.15084Z" fill="white"/>
<path d="M38.7866 30.878C38.8403 30.764 38.9238 30.639 39.0427 30.5149C38.9908 30.6328 38.9036 30.75 38.7866 30.878Z" fill="white"/>
<path d="M38.2186 31.3919C38.2711 31.3193 38.3517 31.2397 38.4638 31.1571C38.4124 31.231 38.3295 31.308 38.2186 31.3919Z" fill="white"/>
<path d="M37.834 31.6922C37.9098 31.6006 38.0152 31.4984 38.1544 31.3959C38.08 31.4909 37.9718 31.5862 37.834 31.6922Z" fill="white"/>
<path d="M33.2394 30.3973C33.2103 30.4721 33.1529 30.5569 33.0621 30.6417C33.0895 30.5635 33.1503 30.4855 33.2394 30.3973Z" fill="white"/>
<path d="M38.5621 31.1094C38.5898 31.0412 38.643 30.9621 38.7282 30.8842C38.7026 30.9565 38.6451 31.0275 38.5621 31.1094Z" fill="white"/>
<path d="M32.8507 30.7915C32.8321 30.8434 32.7861 30.9037 32.7095 30.9674C32.7271 30.9138 32.7752 30.8568 32.8507 30.7915Z" fill="white"/>
<path d="M33.0089 30.643C33.0043 30.6794 32.9736 30.7247 32.913 30.7743C32.9163 30.7364 32.9496 30.6942 33.0089 30.643Z" fill="white"/>
<path d="M30.0427 11.3976C29.9993 11.4067 29.9402 11.3909 29.873 11.3432C29.9189 11.3318 29.973 11.3523 30.0427 11.3976Z" fill="white"/>
<path d="M33.53 30.0938C33.529 30.1361 33.5025 30.188 33.4446 30.2385C33.4436 30.1926 33.474 30.148 33.53 30.0938Z" fill="white"/>
<path d="M32.1412 31.4363C32.1325 31.4721 32.0961 31.5139 32.0298 31.559C32.0378 31.5222 32.0757 31.4823 32.1412 31.4363Z" fill="white"/>
<path d="M33.3875 30.2483C33.3848 30.2837 33.3579 30.3298 33.3007 30.3802C33.3014 30.3426 33.3323 30.3008 33.3875 30.2483Z" fill="white"/>
<path d="M31.4553 12.3789C31.4535 12.3786 31.4572 12.3791 31.4553 12.3789V12.3789Z" fill="white"/>
<path d="M37.7083 31.7768C37.7041 31.7524 37.7256 31.7236 37.7754 31.6974C37.7805 31.7241 37.7573 31.7483 37.7083 31.7768Z" fill="white"/>
<path d="M38.0863 7.84764C38.0638 7.86 38.0301 7.84951 37.9908 7.81106C38.0151 7.797 38.0451 7.8109 38.0863 7.84764Z" fill="white"/>
<path d="M38.5751 8.24285C38.5525 8.25443 38.519 8.24264 38.4795 8.20303C38.5037 8.18996 38.534 8.20472 38.5751 8.24285Z" fill="white"/>
<path d="M14.9087 7.36921C14.9432 7.40779 14.9516 7.45461 14.9599 7.50144C14.9015 7.49877 14.843 7.49611 14.7845 7.49345C14.8172 7.45478 14.85 7.41612 14.9087 7.36921Z" fill="white"/>
<path d="M14.4587 7.57976C14.4641 7.56201 14.4771 7.55608 14.4901 7.55015C14.4822 7.56396 14.4743 7.57777 14.4587 7.57976Z" fill="white"/>
<path d="M9.80904 11.419C9.68663 11.4308 9.59321 11.4308 9.49986 11.4308C9.49768 11.3984 9.49551 11.3661 9.49333 11.3337C9.62722 11.3337 9.7611 11.3337 9.89498 11.3337C9.88827 11.3477 9.88363 11.3634 9.87427 11.3754C9.86457 11.3879 9.85037 11.3967 9.80904 11.419Z" fill="white"/>
<path d="M30.5761 11.8912C30.5721 11.8932 30.5802 11.8891 30.5761 11.8912V11.8912Z" fill="white"/>
</svg>
