<svg width="86" height="38" viewBox="0 0 86 38" fill="none" xmlns="http://www.w3.org/2000/svg">
<path d="M64.4766 25.9693C64.4769 27.2223 64.4769 28.4249 64.4769 29.6658C63.3791 29.6658 62.2985 29.6658 61.1865 29.6658C61.1865 26.889 61.1865 24.133 61.1865 21.3065C61.3705 21.3065 61.5537 21.3065 61.7369 21.3065C64.0802 21.3063 66.4236 21.3095 68.7669 21.3034C69.402 21.3017 69.7024 21.034 69.7338 20.4865C69.7694 19.8643 69.4505 19.5514 68.7345 19.5501C66.4085 19.5457 64.0825 19.5519 61.7566 19.5541C61.5711 19.5542 61.3856 19.5541 61.1768 19.5541C61.1768 18.4368 61.1768 17.3739 61.1768 16.2899C61.2336 16.2728 61.2967 16.2372 61.3597 16.2374C63.859 16.2456 66.3584 16.2547 68.8577 16.271C69.1692 16.273 69.4837 16.2959 69.7914 16.3428C72.2458 16.7169 73.5142 18.5223 73.084 20.9888C72.8291 22.4504 71.9905 23.444 70.6168 24.0316C70.46 24.0987 70.3012 24.1613 70.079 24.2524C71.2393 26.0647 72.3817 27.8491 73.5682 29.7023C72.6367 29.7023 71.7517 29.6129 70.8939 29.7242C69.7475 29.873 69.1059 29.4538 68.6012 28.4623C67.9699 27.2224 67.162 26.069 66.4511 24.8665C66.2755 24.5695 66.0892 24.4307 65.7187 24.4495C64.5658 24.5081 64.4443 24.1765 64.4749 25.6645C64.4766 25.7493 64.4759 25.8341 64.4766 25.9693Z" fill="#111111"/>
<path d="M51.1991 16.2502C51.6614 16.1828 51.6328 16.455 51.6326 16.7196C51.6308 19.5841 51.6318 22.4485 51.6328 25.3129C51.6328 25.4993 51.6373 25.6857 51.6431 25.872C51.6562 26.2877 51.8748 26.482 52.3028 26.4808C53.4828 26.4776 54.6629 26.4772 55.8428 26.4901C56.2186 26.4941 56.3823 26.3133 56.4106 25.977C56.4233 25.8254 56.4183 25.6723 56.4179 25.5198C56.4098 22.6046 56.4013 19.6893 56.3929 16.7741C56.3924 16.6092 56.3928 16.4442 56.3928 16.2537C57.5497 16.2537 58.6523 16.2537 59.7821 16.2537C59.792 16.3969 59.8092 16.5289 59.8091 16.6609C59.8075 19.7795 59.8079 22.8982 59.7966 26.0168C59.795 26.4559 59.7557 26.8975 59.6978 27.3333C59.4946 28.8619 58.7856 29.6469 57.2139 29.6977C55.0174 29.7688 52.8112 29.7262 50.6164 29.6066C49.2135 29.5302 48.5643 28.8211 48.3233 27.4577C48.241 26.9919 48.1874 26.5151 48.1856 26.0431C48.1739 22.8066 48.1795 19.57 48.1795 16.2503C49.154 16.2503 50.1527 16.2503 51.1991 16.2502Z" fill="#111111"/>
<path d="M82.1975 19.3531C82.1974 18.3032 82.1974 17.3042 82.1974 16.2687C83.3167 16.2687 84.4176 16.2687 85.5571 16.2687C85.5687 16.4145 85.5905 16.5603 85.5906 16.7062C85.5911 19.8243 85.5983 22.9425 85.5799 26.0605C85.5764 26.6501 85.5137 27.2473 85.401 27.8267C85.2033 28.8436 84.5865 29.5607 83.4995 29.6221C81.5809 29.7303 79.6564 29.7481 77.7339 29.7714C77.1828 29.778 76.6247 29.7054 76.0797 29.6133C74.946 29.4219 74.3533 28.866 74.1701 27.7627C74.054 27.0638 74.0045 26.3479 73.9988 25.6391C73.9741 22.5551 73.9763 19.4709 73.9698 16.3867C73.9698 16.3546 73.9846 16.3224 74.001 16.2557C75.1085 16.2557 76.224 16.2557 77.3876 16.2557C77.3876 16.4458 77.3876 16.6106 77.3876 16.7755C77.3875 19.6902 77.3866 22.605 77.3877 25.5198C77.3881 26.4475 77.4338 26.4898 78.3819 26.4894C79.4229 26.4891 80.4639 26.4914 81.5049 26.4865C82.119 26.4836 82.2025 26.4092 82.2033 25.8097C82.2061 23.6744 82.2001 21.5392 82.1975 19.3531Z" fill="#111111"/>
<path d="M32.4352 17.6691C34.0164 15.2538 36.2277 13.8997 39.1234 13.6687C41.012 13.5181 42.838 13.7764 44.4985 14.7225C45.1034 15.0672 45.6393 15.5273 46.2668 15.9779C45.3753 16.9087 44.5631 17.7567 43.7125 18.6448C42.4206 17.4553 40.9154 16.9446 39.1786 17.1078C38.2148 17.1984 37.367 17.5523 36.6378 18.1676C35.0764 19.485 34.5611 21.954 35.4536 23.9146C36.0166 25.1514 36.9396 26.0314 38.2832 26.4373C39.5829 26.8299 40.8871 26.6869 42.2309 26.3714C42.2309 27.5821 42.2309 28.7427 42.2309 29.9082C39.641 30.9034 35.4058 29.739 33.339 27.4558C31.0196 24.8936 30.6388 20.877 32.4352 17.6691Z" fill="#111111"/>
<path d="M55.6194 10.4425C55.7319 10.4332 55.8444 10.4238 56.0339 10.445C56.2833 10.4844 56.4559 10.504 56.628 10.5006C58.1334 10.4709 59.6387 10.4136 61.1441 10.4117C62.4066 10.4102 63.6692 10.4709 64.9315 10.5083C65.0004 10.5103 65.0681 10.551 65.2774 10.6206C65.0497 10.6685 64.9737 10.6943 64.8963 10.6993C63.7945 10.7698 62.6851 10.7813 61.5922 10.9182C59.681 11.1576 57.7615 11.3883 55.8792 11.7778C53.2019 12.332 50.6326 13.2434 48.162 14.4025C47.7918 14.5761 47.4367 14.7067 47.0403 14.5019C47.0403 14.5019 47.0588 14.4927 47.0495 14.4643C46.9597 14.3507 46.8892 14.2532 46.7971 14.1823C45.7249 13.3579 44.5047 12.8085 43.2094 12.4295C42.7169 12.2853 42.1826 12.2773 41.6674 12.2073C41.6181 12.2074 41.5688 12.2076 41.4705 12.1589C40.5689 11.838 39.7044 12.0524 38.8453 12.0553C38.813 12.0554 38.7809 12.126 38.7488 12.1637C38.7003 12.1782 38.6518 12.1927 38.5316 12.1812C37.9183 12.1204 37.3768 12.0856 36.8352 12.0508C36.8352 12.0508 36.8489 12.0472 36.8433 12.0175C36.4455 11.3709 36.0125 10.796 35.2711 10.5395C35.2711 10.5395 35.2869 10.5076 35.2792 10.4881C34.8554 10.1864 34.4393 9.90436 34.0233 9.62226C34.0233 9.62226 34.0429 9.5987 34.0311 9.5757C33.2121 9.14498 32.4445 8.60743 31.5889 8.35832C30.1059 7.92658 28.5742 7.64411 27.0509 7.3607C26.4887 7.2561 25.8925 7.32577 25.3118 7.31596C25.2636 7.31855 25.2153 7.32114 25.1172 7.27725C24.9722 7.20216 24.8776 7.14994 24.7821 7.14841C22.2735 7.10808 19.7803 7.23324 17.3306 7.82183C17.2042 7.8522 17.0635 7.82574 16.9294 7.82574C17.0039 7.6667 17.0842 7.59805 17.1767 7.57367C18.9234 7.11327 20.6724 6.66144 22.419 6.20096C24.3836 5.68303 26.3984 5.57201 28.4155 5.52647C29.5371 5.50114 30.6618 5.57217 31.7843 5.61847C33.905 5.70595 35.9515 6.15881 37.9475 6.84746C38.3966 7.00242 38.8436 7.16332 39.2915 7.32149C39.2915 7.32149 39.2798 7.33029 39.2894 7.35898C39.8189 7.70254 40.3388 8.01741 40.8588 8.33229C40.8588 8.33229 40.8444 8.35886 40.8554 8.37365C40.9023 8.39932 40.9382 8.41019 40.974 8.42106C40.974 8.42106 40.959 8.45141 40.9653 8.47324C41.1079 8.57706 41.2442 8.65906 41.3805 8.74105C41.3805 8.74105 41.3663 8.75536 41.3768 8.77507C41.4229 8.80701 41.4585 8.81924 41.4941 8.83146C41.4941 8.83146 41.4518 8.84341 41.4714 8.87298C42.1944 9.72007 43.1791 10.0373 44.18 10.2854C44.7926 10.4373 45.4325 10.5127 46.0648 10.5531C47.0227 10.6143 47.9847 10.6151 48.945 10.6415C49.4733 10.6354 50.0015 10.6294 50.6139 10.653C52.2611 10.6553 53.8241 10.6303 55.3869 10.5942C55.4656 10.5924 55.5419 10.4953 55.6194 10.4425Z" fill="#111111"/>
<path d="M29.1582 19.3589C28.4468 19.3592 27.7861 19.381 27.1278 19.3518C26.7328 19.3343 26.6298 19.4593 26.6322 19.842C26.6512 22.8771 26.6473 25.9123 26.6494 28.9475C26.65 29.7204 26.6483 29.7204 25.8513 29.7193C25.07 29.7183 24.2878 29.6936 23.5079 29.7253C23.0515 29.7438 22.9093 29.6012 22.9119 29.1513C22.9294 26.0653 22.9213 22.9792 22.9215 19.8932C22.9215 19.7422 22.9215 19.5913 22.9215 19.3541C22.1693 19.3541 21.448 19.3535 20.7268 19.3542C19.3766 19.3555 19.3758 19.3558 19.371 18.03C19.3688 17.4218 19.3706 16.8135 19.3706 16.1524C19.5966 16.1405 19.781 16.1223 19.9653 16.1223C23.1944 16.1212 26.4236 16.1319 29.6526 16.113C30.1563 16.11 30.3248 16.2583 30.2971 16.7481C30.2589 17.4244 30.2506 18.1065 30.2978 18.7816C30.3324 19.277 30.1361 19.4172 29.6783 19.3621C29.5243 19.3436 29.3661 19.359 29.1582 19.3589Z" fill="#111111"/>
<path d="M40.2234 37.4423C40.0698 37.4443 39.9587 37.4443 39.7173 37.4443C39.9048 37.3276 39.9796 37.2671 40.065 37.23C42.1951 36.307 43.441 34.6691 43.5742 32.448C43.7298 29.8534 43.6105 27.2432 43.6105 24.5947C42.0867 24.5947 40.5505 24.5947 38.9758 24.5947C38.9758 23.5456 38.9758 22.5404 38.9758 21.5048C41.5577 21.5048 44.151 21.5048 46.8057 21.5048C46.8057 21.9896 46.8059 22.4742 46.8057 22.9587C46.8045 25.2967 46.7618 27.6354 46.8114 29.9723C46.8937 33.8497 44.4053 36.9548 40.2234 37.4423Z" fill="#111111"/>
<path d="M11.661 16.1068C13.5524 16.1076 15.3918 16.1173 17.231 16.1023C17.6489 16.0988 17.835 16.2085 17.7956 16.6476C17.7595 17.0511 17.7759 17.4611 17.797 17.8669C17.8144 18.2021 17.6703 18.3177 17.3394 18.3133C16.2465 18.2987 15.1531 18.314 14.0605 18.2901C13.2222 18.2718 12.7311 18.3953 12.6842 19.3174C12.6786 19.4279 12.4507 19.6171 12.3239 19.6187C10.5369 19.6411 8.74964 19.635 6.96247 19.6421C6.66493 19.6433 6.59057 19.497 6.56644 19.2332C6.50594 18.5718 6.25339 18.3308 5.57114 18.3189C4.42628 18.299 3.28043 18.2912 2.13588 18.3164C1.66922 18.3266 1.51821 18.1663 1.55858 17.7262C1.59251 17.3564 1.59267 16.9785 1.55648 16.609C1.51604 16.1962 1.6762 16.095 2.08285 16.0969C5.25816 16.1123 8.43357 16.1062 11.661 16.1068Z" fill="#111111"/>
<path d="M39.8486 6.06178C38.3191 3.86489 39.3538 1.00874 41.8325 0.492108C43.5517 0.13377 45.1371 0.931661 45.7753 2.47645C46.428 4.05632 45.8539 6.02817 44.4951 6.87353C43.0352 7.78175 41.2182 7.52686 40.0085 6.24377C39.9615 6.19392 39.9176 6.1412 39.8486 6.06178Z" fill="#111111"/>
<path d="M38.8454 34.1899C38.8454 34.1899 38.8136 34.2164 38.7514 34.2137C38.5274 34.2636 38.3645 34.3134 38.2039 34.3695C36.876 34.8329 35.5638 35.3468 34.2158 35.7448C33.2821 36.0204 32.3039 36.1663 31.3369 36.317C30.0484 36.5178 28.7519 36.6692 27.4572 36.8298C27.4076 36.8359 27.3418 36.7172 27.2835 36.6566C27.7304 36.4964 28.1772 36.3361 28.6971 36.1619C29.9788 35.8911 31.0448 35.329 32.0683 34.6765C32.0785 34.67 32.0761 34.6446 32.0796 34.6281C32.0796 34.6281 32.1027 34.6006 32.1607 34.6018C32.6832 34.2891 33.1476 33.9752 33.612 33.6612C33.612 33.6612 33.6267 33.6865 33.6549 33.6832C33.9478 33.451 34.2125 33.2222 34.4772 32.9934C34.4772 32.9934 34.4747 32.9866 34.5098 32.9851C34.5836 32.9402 34.6224 32.8968 34.6611 32.8533C34.6611 32.8533 34.665 32.8659 34.6946 32.8605C34.8841 32.6958 35.0439 32.5366 35.2038 32.3773C35.2038 32.3773 35.2026 32.3758 35.236 32.3728C35.3183 32.3074 35.3673 32.2449 35.4162 32.1824C35.4162 32.1824 35.4139 32.1745 35.4496 32.1715C35.518 32.1217 35.5506 32.0748 35.5833 32.0279C35.5833 32.0279 35.5896 32.0398 35.6186 32.0378C35.7088 31.9478 35.77 31.8598 35.8311 31.7718C35.8311 31.7718 35.8279 31.7658 35.8632 31.7629C35.9272 31.7122 35.9559 31.6644 35.9846 31.6166C35.9944 31.6333 36.0042 31.65 36.0334 31.6429C36.0811 31.5651 36.1094 31.5113 36.1377 31.4574C36.1377 31.4574 36.1401 31.4602 36.176 31.454C36.4481 31.4182 36.6941 31.3319 36.9185 31.3695C37.6944 31.4995 38.4489 31.8024 39.2589 31.5977C39.3728 31.5976 39.4868 31.5975 39.6588 31.6436C40.326 31.6777 40.9357 31.6479 41.544 31.6652C41.7062 31.6699 41.864 31.8188 42.0238 31.9015C42.0238 31.9015 42.0098 31.8855 41.9763 31.8944C41.8538 32.0328 41.7649 32.1625 41.6759 32.2921C41.6759 32.2921 41.6661 32.2788 41.6389 32.2823C41.5549 32.3679 41.4982 32.4499 41.4416 32.532C41.4416 32.532 41.4295 32.5613 41.38 32.5674C41.2446 32.6558 41.1588 32.7383 41.073 32.8208C41.073 32.8208 41.0654 32.8233 41.0321 32.8207C40.8864 32.9241 40.7742 33.0301 40.662 33.1361C40.662 33.1361 40.6355 33.1392 40.6181 33.1335C40.5779 33.1576 40.5551 33.1875 40.5323 33.2173C40.5323 33.2173 40.531 33.207 40.498 33.2053C40.2759 33.34 40.0869 33.4763 39.8978 33.6127C39.8978 33.6127 39.8963 33.603 39.8613 33.605C39.4994 33.8013 39.1724 33.9956 38.8454 34.1899Z" fill="#111111"/>
<path d="M23.3216 9.61744C23.4025 9.61626 23.4835 9.61508 23.6187 9.66148C24.1292 9.76867 24.5843 9.83916 25.0419 9.88604C27.0986 10.0967 29.0776 10.5757 30.9428 11.4697C31.3538 11.6666 31.7875 11.8184 32.2107 11.991C32.2107 11.991 32.1896 12.0241 32.2073 12.0398C32.2879 12.0718 32.3509 12.0883 32.4138 12.1047C32.4138 12.1047 32.4003 12.1142 32.4113 12.1415C32.5011 12.2652 32.5799 12.3617 32.6947 12.5024C32.53 12.5024 32.4273 12.5214 32.3349 12.4993C31.6189 12.3282 30.911 12.1172 30.1881 11.9827C29.6127 11.8756 29.0196 11.8589 28.4344 11.8021C28.3524 11.7967 28.2703 11.7912 28.1353 11.735C27.425 11.594 26.7697 11.4822 26.1095 11.4204C25.6047 11.3732 25.0937 11.3892 24.5854 11.3771C24.5356 11.3785 24.4857 11.38 24.3836 11.3333C23.7018 11.2278 23.0731 11.1317 22.4429 11.1212C20.9741 11.0967 19.5041 11.0921 18.0356 11.1247C17.5073 11.1365 16.982 11.2779 16.4553 11.3601C16.3753 11.3745 16.2953 11.3889 16.1409 11.3741C14.6706 11.5084 13.2748 11.6712 11.8793 11.8362C11.6588 11.8623 11.4396 11.8985 11.2198 11.93C11.2102 11.8863 11.2005 11.8426 11.1909 11.7988C11.2586 11.7647 11.3229 11.7192 11.3946 11.6982C12.9782 11.2357 14.5494 10.7238 16.1518 10.3346C17.1604 10.0897 18.2172 10.0374 19.2498 9.88196C19.6406 9.82312 20.0241 9.71738 20.4109 9.63302C20.5238 9.62227 20.6367 9.61152 20.8269 9.63149C21.71 9.64728 22.5158 9.63236 23.3216 9.61744Z" fill="#111111"/>
<path d="M12.7953 23.2168C12.7953 24.3479 12.7953 24.3496 11.6724 24.351C10.1306 24.3528 8.58879 24.3419 7.04726 24.359C6.65975 24.3633 6.53354 24.243 6.54995 23.8628C6.57836 23.2042 6.56721 22.5431 6.54681 21.8838C6.53735 21.5779 6.64088 21.466 6.95896 21.4644C8.70752 21.4559 10.456 21.4352 12.2045 21.4104C12.6288 21.4043 12.8443 21.5417 12.8019 21.9996C12.7662 22.3856 12.795 22.7772 12.7953 23.2168Z" fill="#111111"/>
<path d="M61.9644 7.07225C63.7283 7.39953 65.4144 7.83143 67.0419 8.4601C60.5727 7.11076 54.0553 6.91631 47.4944 7.55795C52.2734 6.50138 57.0765 6.18983 61.9644 7.07225Z" fill="#111111"/>
<path d="M0.548654 25.1626C0.48331 24.5468 0.444543 23.9455 0.445387 23.3443C0.445489 23.2707 0.655796 23.138 0.772362 23.134C1.39541 23.1124 2.01973 23.1292 2.64339 23.1197C2.91609 23.1155 3.00363 23.2333 3.0021 23.488C2.99395 24.8419 2.98972 26.196 3.00034 27.5498C3.00298 27.8865 2.86137 28.0122 2.53372 27.986C2.41325 27.9763 2.28972 27.973 2.17023 27.9876C1.79109 28.0337 1.65161 27.8991 1.66384 27.5078C1.69232 26.5957 1.67292 25.6821 1.64566 24.7402C1.4984 25.4159 0.950021 25.067 0.548654 25.1626Z" fill="#111111"/>
<path d="M17.7077 24.5465C17.7034 25.5495 17.6739 26.5144 17.7092 27.477C17.7304 28.0588 17.3589 27.9643 16.9963 27.9919C16.5796 28.0235 16.4213 27.9006 16.4248 27.4632C16.4351 26.1795 16.3978 24.8954 16.377 23.6115C16.372 23.2983 16.4525 23.0968 16.8445 23.1136C17.3975 23.1374 17.9535 23.1376 18.5062 23.1108C18.8854 23.0923 18.9907 23.2458 18.9681 23.5861C18.9467 23.906 18.9713 24.2286 18.9657 24.5498C18.9607 24.837 19.072 25.1852 18.5418 25.1574C18.1377 25.1361 17.7 25.2299 17.8007 24.5969C17.8076 24.554 17.7748 24.5051 17.7605 24.459C17.7436 24.4752 17.7267 24.4913 17.7077 24.5465Z" fill="#111111"/>
<path d="M13.8746 26.0682C13.8743 25.2086 13.8838 24.3996 13.8688 23.591C13.8625 23.2507 13.9743 23.1026 14.345 23.1105C15.7704 23.141 15.4876 22.9431 15.5046 24.212C15.5191 25.2933 15.5015 26.3752 15.5253 27.4562C15.5339 27.8471 15.4093 28.0012 14.9945 27.9908C13.7006 27.9582 13.8779 28.1286 13.8732 26.93C13.8721 26.6597 13.8741 26.3893 13.8746 26.0682Z" fill="#111111"/>
<path d="M5.41664 25.0506C5.4178 25.9131 5.40964 26.7249 5.42464 27.5364C5.43068 27.8632 5.30585 27.9924 4.96887 27.9848C3.73052 27.9569 3.8786 28.1398 3.87829 26.9488C3.87802 25.8835 3.89323 24.8176 3.8615 23.7532C3.84761 23.2871 3.95809 23.0798 4.48684 23.1034C5.58922 23.1525 5.38882 22.9937 5.41475 24.0359C5.42274 24.357 5.4164 24.6784 5.41664 25.0506Z" fill="#111111"/>
<path d="M70.4521 34.7681C70.3083 34.7871 70.2041 34.7937 70.1006 34.7888C70.0524 34.7866 70.0053 34.7623 69.9083 34.7331C69.9083 34.0268 69.9083 33.3122 69.9083 32.4509C69.5343 33.0209 69.2436 33.4637 68.8886 34.0046C68.5771 33.515 68.3221 33.1142 68.0672 32.7134C68.0318 32.7218 67.9964 32.7301 67.961 32.7384C67.961 33.4148 67.961 34.0911 67.961 34.7868C67.7257 34.7868 67.5567 34.7868 67.3501 34.7868C67.3501 33.6534 67.3501 32.5263 67.3501 31.3747C67.7123 31.2145 67.9579 31.3438 68.1498 31.706C68.372 32.1254 68.6366 32.5234 68.921 32.994C69.168 32.5765 69.4184 32.2151 69.6028 31.824C69.7877 31.4315 70.0288 31.2324 70.4922 31.3876C70.4922 32.5 70.4922 33.6255 70.4521 34.7681Z" fill="#111111"/>
<path d="M39.2725 7.29317C38.8436 7.16332 38.3966 7.00242 37.9475 6.84746C35.9515 6.15881 33.905 5.70595 31.7843 5.61847C30.6618 5.57217 29.5371 5.50114 28.4155 5.52647C26.3984 5.57201 24.3836 5.68303 22.419 6.20096C20.6724 6.66144 18.9234 7.11327 17.1767 7.57367C17.0842 7.59805 17.0039 7.6667 16.9294 7.82574C17.0635 7.82574 17.2042 7.8522 17.3306 7.82183C19.7803 7.23324 22.2735 7.10808 24.7821 7.14841C24.8776 7.14994 24.9722 7.20216 25.0824 7.26627C23.2822 7.3843 21.4544 7.36604 19.6553 7.57964C18.0731 7.7675 16.5233 8.21514 14.9589 8.54722C14.7773 8.58577 14.5945 8.61896 14.3679 8.5696C14.6426 8.44731 14.9144 8.31836 15.1925 8.2037C20.7217 5.92334 26.4633 4.92433 32.4582 5.51762C34.8131 5.75066 37.1222 6.18666 39.2725 7.29317ZM16.2545 7.90978C16.2197 7.94988 16.1848 7.98997 16.1499 8.03007C16.2122 8.03283 16.2745 8.03559 16.3368 8.03835C16.3279 7.98979 16.3189 7.94123 16.2545 7.90978ZM15.8113 8.13182C15.8197 8.11751 15.8281 8.10319 15.8365 8.08887C15.8227 8.09502 15.8089 8.10117 15.8113 8.13182Z" fill="#111111"/>
<path d="M47.056 14.5326C47.4366 14.7067 47.7918 14.5761 48.162 14.4025C50.6326 13.2434 53.2019 12.332 55.8792 11.7778C57.7615 11.3883 59.681 11.1576 61.5922 10.9182C62.6851 10.7813 63.7945 10.7698 64.8963 10.6993C64.9737 10.6943 65.0497 10.6685 65.2774 10.6206C65.0681 10.551 65.0004 10.5103 64.9315 10.5083C63.6692 10.4709 62.4066 10.4102 61.1441 10.4117C59.6387 10.4136 58.1334 10.4709 56.628 10.5006C56.4559 10.504 56.2833 10.4844 56.0759 10.4519C60.0084 10.2813 63.9764 10.1104 67.9256 10.7066C67.9871 10.7159 68.0481 10.7286 68.0948 10.6367C65.4251 10.8202 62.7465 10.9242 60.0875 11.2053C55.8518 11.653 51.8086 12.8202 47.9715 14.6424C47.6448 14.7975 47.3393 14.9447 47.056 14.5326Z" fill="#111111"/>
<path d="M52.4375 33.2083C52.568 33.1006 52.6918 32.9913 52.8276 32.9745C53.0817 32.9432 53.3427 32.9655 53.6651 32.9655C53.6651 33.2638 53.6651 33.5459 53.6651 33.828C53.6651 34.0978 53.6651 34.3677 53.6651 34.6283C52.6949 35.0624 51.5468 34.9149 51.0004 34.2979C50.5021 33.7352 50.4632 32.7063 50.9161 32.0651C51.3915 31.3918 52.4788 31.1399 53.5112 31.4623C53.5112 31.6577 53.5112 31.8515 53.5112 32.0001C53.0664 31.9749 52.6496 31.8894 52.2517 31.9417C51.4691 32.0446 51.0836 32.6702 51.2616 33.434C51.4109 34.0748 52.1936 34.524 52.854 34.2723C53.0186 34.2096 53.0605 33.8393 53.1243 33.6908C52.8869 33.3685 52.4154 33.761 52.4375 33.2083Z" fill="#111111"/>
<path d="M3.00004 20.3757C3.00095 20.8999 2.99097 21.3744 3.00292 21.8484C3.00962 22.1142 2.89756 22.2074 2.63277 22.2024C2.02592 22.191 1.4185 22.1878 0.81177 22.2012C0.523851 22.2075 0.388599 22.1123 0.417644 21.8216C0.429382 21.7041 0.434371 21.5826 0.417357 21.4664C0.358644 21.0655 0.558536 20.9566 0.928691 20.9973C1.11407 21.0177 1.30375 21.0009 1.5873 21.0009C1.5873 20.5929 1.6128 20.2285 1.58065 19.8691C1.54311 19.4494 1.64688 19.2448 2.13633 19.2636C3.19176 19.3042 2.98507 19.2113 3.00004 20.3757Z" fill="#111111"/>
<path d="M16.3658 20.6769C16.3654 20.4913 16.365 20.3561 16.3644 20.2209C16.3598 19.2002 16.3594 19.2084 17.3852 19.2615C17.6678 19.2762 17.7987 19.3707 17.7896 19.6532C17.7793 19.974 17.8016 20.2961 17.7826 20.6161C17.7627 20.9508 17.8611 21.0999 18.2444 21.0935C18.9932 21.081 19.0624 21.1708 18.9464 21.9045C18.9287 22.0161 18.7523 22.1839 18.6435 22.1883C17.9872 22.2148 17.3286 22.2147 16.6724 22.1873C16.5671 22.1828 16.3931 22.0029 16.3825 21.8921C16.3457 21.5067 16.3667 21.116 16.3658 20.6769Z" fill="#111111"/>
<path d="M13.8781 21.9539C13.8736 21.198 13.8832 20.488 13.8655 19.7787C13.8568 19.428 13.9465 19.255 14.3561 19.2614C15.7375 19.2829 15.4719 19.1491 15.5044 20.3503C15.5177 20.84 15.4962 21.3306 15.5127 21.8202C15.5223 22.1069 15.4095 22.2171 15.1196 22.2022C14.8263 22.1872 14.5296 22.2183 14.2384 22.19C14.114 22.1779 13.9998 22.0664 13.8781 21.9539Z" fill="#111111"/>
<path d="M3.8697 21.5761C3.86934 20.9343 3.88108 20.3408 3.86405 19.7482C3.85437 19.4114 3.95684 19.265 4.33363 19.2589C5.40954 19.2414 5.41066 19.2264 5.41673 20.2885C5.41973 20.8138 5.43601 21.3403 5.40145 21.8635C5.39355 21.9831 5.21068 22.1752 5.09106 22.1888C4.71683 22.2313 4.33433 22.2044 3.90047 22.2044C3.88883 21.9848 3.87929 21.8048 3.8697 21.5761Z" fill="#111111"/>
<path d="M20.3651 9.62446C20.0241 9.71738 19.6406 9.82312 19.2498 9.88196C18.2172 10.0374 17.1604 10.0897 16.1518 10.3346C14.5494 10.7238 12.9782 11.2357 11.3946 11.6982C11.3229 11.7192 11.2586 11.7647 11.1909 11.7988C11.2005 11.8426 11.2102 11.8863 11.2198 11.93C11.4396 11.8985 11.6588 11.8623 11.8793 11.8362C13.2748 11.6712 14.6706 11.5084 16.1002 11.3684C13.418 11.6323 10.7467 12.0773 8.18055 13.0205C7.92369 13.1149 7.63634 13.1302 7.45239 13.1652C8.37493 12.7679 9.3732 12.2966 10.4035 11.9059C11.467 11.5026 12.5505 11.1407 13.6457 10.8292C14.7241 10.5225 15.8193 10.2548 16.9233 10.0563C18.045 9.85464 19.1864 9.75834 20.3651 9.62446ZM10.8829 12.0887C10.896 12.0779 10.9112 12.0687 10.9215 12.0558C10.9315 12.0434 10.9364 12.0271 10.9436 12.0125C10.801 12.0125 10.6584 12.0125 10.5159 12.0125C10.5182 12.0461 10.5205 12.0797 10.5228 12.1133C10.6222 12.1133 10.7216 12.1133 10.8829 12.0887Z" fill="#111111"/>
<path d="M60.041 33.728C59.8431 33.2576 59.6594 32.8265 59.4438 32.4111C59.2646 32.0657 59.048 31.7389 58.8296 31.3732C59.222 31.2285 59.5136 31.2621 59.72 31.6618C59.912 32.0335 60.1435 32.3858 60.3871 32.7963C60.6253 32.4187 60.8735 32.0942 61.0451 31.7349C61.2364 31.3345 61.5149 31.2434 61.9542 31.3737C61.3972 32.4596 60.3114 33.3524 60.7297 34.7861C60.454 34.7861 60.2744 34.7861 60.0414 34.7861C60.0414 34.4462 60.0414 34.1101 60.041 33.728Z" fill="#111111"/>
<path d="M27.2547 36.6433C27.3418 36.7172 27.4076 36.8359 27.4572 36.8298C28.7519 36.6692 30.0484 36.5178 31.3369 36.317C32.3039 36.1663 33.2821 36.0204 34.2158 35.7448C35.5638 35.3468 36.876 34.8329 38.2039 34.3695C38.3645 34.3134 38.5274 34.2636 38.7306 34.2144C37.1031 35.1174 35.3078 35.6917 33.4496 36.0333C31.4406 36.4025 29.4104 36.6641 27.3859 36.9485C27.0335 36.998 26.6635 36.9195 26.3016 36.9188C26.2248 36.9186 26.1477 36.9998 26.0646 37.0045C26.4517 36.8797 26.8387 36.7548 27.2547 36.6433Z" fill="#111111"/>
<path d="M25.3542 7.32795C25.8925 7.32577 26.4887 7.2561 27.0509 7.3607C28.5742 7.64411 30.1059 7.92658 31.5889 8.35832C32.4445 8.60743 33.2121 9.14498 34.0235 9.58899C31.3747 8.05661 28.4317 7.53212 25.3542 7.32795Z" fill="#111111"/>
<path d="M32.1915 11.9636C31.7875 11.8184 31.3538 11.6666 30.9428 11.4697C29.0776 10.5757 27.0986 10.0967 25.0419 9.88604C24.5843 9.83916 24.1292 9.76868 23.6571 9.67478C26.6626 9.77574 29.5333 10.4452 32.1915 11.9636Z" fill="#111111"/>
<path d="M16.5016 11.3691C16.982 11.2779 17.5073 11.1365 18.0356 11.1247C19.5041 11.0921 20.9741 11.0967 22.4429 11.1212C23.0731 11.1317 23.7019 11.2278 24.3493 11.3178C22.0713 11.3415 19.7753 11.3303 17.4793 11.3261C17.1689 11.3256 16.8584 11.3599 16.5016 11.3691Z" fill="#111111"/>
<path d="M48.8993 10.63C47.9847 10.6151 47.0227 10.6143 46.0648 10.5531C45.4325 10.5127 44.7926 10.4373 44.18 10.2854C43.1791 10.0373 42.1944 9.72007 41.4924 8.86601C43.2297 10.2906 45.3898 10.357 47.5042 10.565C47.9513 10.609 48.4037 10.602 48.8993 10.63Z" fill="#111111"/>
<path d="M28.4729 11.8159C29.0197 11.8589 29.6127 11.8756 30.1881 11.9827C30.911 12.1172 31.6189 12.3282 32.3349 12.4993C32.4273 12.5214 32.53 12.5024 32.6947 12.5024C32.5799 12.3617 32.5012 12.2652 32.4152 12.1342C32.8716 12.3635 33.3352 12.6273 33.7988 12.8911C33.7811 12.9038 33.7634 12.9165 33.7457 12.9292C32.001 12.5628 30.2562 12.1963 28.4729 11.8159Z" fill="#111111"/>
<path d="M41.7037 12.2218C42.1826 12.2773 42.7169 12.2853 43.2094 12.4295C44.5047 12.8085 45.7249 13.3579 46.7971 14.1823C46.8892 14.2532 46.9597 14.3507 47.0426 14.4719C45.4553 13.3527 43.7095 12.5454 41.7037 12.2218Z" fill="#111111"/>
<path d="M55.5716 10.4334C55.5419 10.4953 55.4656 10.5924 55.3869 10.5942C53.8241 10.6303 52.261 10.6553 50.6624 10.6605C52.2592 10.567 53.8916 10.4956 55.5716 10.4334Z" fill="#111111"/>
<path d="M32.0427 34.6329C32.0761 34.6446 32.0785 34.67 32.0683 34.6765C31.0448 35.329 29.9788 35.8911 28.7299 36.149C29.7951 35.6459 30.9004 35.1418 32.0427 34.6329Z" fill="#111111"/>
<path d="M24.628 11.3902C25.0938 11.3892 25.6047 11.3732 26.1095 11.4204C26.7697 11.4822 27.425 11.594 28.0999 11.7143C26.9684 11.6307 25.8195 11.5171 24.628 11.3902Z" fill="#111111"/>
<path d="M38.7947 12.1727C38.7809 12.126 38.813 12.0554 38.8453 12.0553C39.7044 12.0524 40.5689 11.838 41.4367 12.1438C40.5814 12.179 39.711 12.1803 38.7947 12.1727Z" fill="#111111"/>
<path d="M39.2176 31.5854C38.449 31.8024 37.6944 31.4995 36.9185 31.3695C36.6941 31.3319 36.4481 31.4182 36.1746 31.4528C36.2657 31.1584 36.4649 31.1109 36.7949 31.1793C37.5818 31.3422 38.3816 31.4457 39.2176 31.5854Z" fill="#111111"/>
<path d="M42.0531 31.8838C41.864 31.8188 41.7062 31.6699 41.544 31.6652C40.9357 31.6479 40.326 31.6777 39.6997 31.6563C40.5328 31.5854 41.383 31.548 42.2921 31.5081C42.2092 31.6497 42.1458 31.7579 42.0531 31.8838Z" fill="#111111"/>
<path d="M35.2868 10.569C36.0125 10.796 36.4454 11.3709 36.8418 12.0242C36.3315 11.5733 35.817 11.0859 35.2868 10.569Z" fill="#111111"/>
<path d="M23.2799 9.60572C22.5158 9.63236 21.71 9.64728 20.869 9.63923C21.6352 9.60884 22.4367 9.60142 23.2799 9.60572Z" fill="#111111"/>
<path d="M40.8429 8.30289C40.3388 8.01741 39.8188 7.70254 39.2918 7.35216C39.7988 7.63561 40.3129 7.95455 40.8429 8.30289Z" fill="#111111"/>
<path d="M36.8468 12.0822C37.3768 12.0856 37.9183 12.1204 38.4933 12.177C38.2274 12.2546 37.9164 12.2778 37.6314 12.3744C37.2806 12.4934 37.0447 12.4025 36.8468 12.0822Z" fill="#111111"/>
<path d="M33.5767 33.6701C33.1476 33.9752 32.6832 34.2891 32.1789 34.6006C32.6064 34.2917 33.0738 33.9853 33.5767 33.6701Z" fill="#111111"/>
<path d="M34.0414 9.65015C34.4393 9.90436 34.8553 10.1864 35.2733 10.5048C34.87 10.2534 34.4647 9.96573 34.0414 9.65015Z" fill="#111111"/>
<path d="M38.882 34.187C39.1724 33.9956 39.4994 33.8013 39.8655 33.6077C39.576 33.8003 39.2473 33.9922 38.882 34.187Z" fill="#111111"/>
<path d="M34.4438 33.0041C34.2126 33.2222 33.9478 33.451 33.6453 33.6721C33.8751 33.4478 34.1427 33.2312 34.4438 33.0041Z" fill="#111111"/>
<path d="M39.9338 33.6085C40.0869 33.4764 40.2759 33.34 40.5028 33.2076C40.3503 33.3424 40.16 33.4734 39.9338 33.6085Z" fill="#111111"/>
<path d="M35.1715 32.3881C35.0439 32.5366 34.8841 32.6958 34.6879 32.8596C34.8141 32.709 34.9766 32.5539 35.1715 32.3881Z" fill="#111111"/>
<path d="M41.3661 8.71181C41.2442 8.65906 41.1079 8.57706 40.9734 8.45773C41.1007 8.50779 41.2262 8.59517 41.3661 8.71181Z" fill="#111111"/>
<path d="M41.7078 32.2807C41.7649 32.1625 41.8539 32.0329 41.9804 31.9041C41.9252 32.0265 41.8324 32.148 41.7078 32.2807Z" fill="#111111"/>
<path d="M41.1029 32.8137C41.1589 32.7383 41.2447 32.6559 41.3641 32.5701C41.3094 32.6467 41.2211 32.7267 41.1029 32.8137Z" fill="#111111"/>
<path d="M40.6935 33.1251C40.7742 33.0301 40.8864 32.9241 41.0346 32.8178C40.9554 32.9163 40.8402 33.0152 40.6935 33.1251Z" fill="#111111"/>
<path d="M35.801 31.7822C35.77 31.8598 35.7089 31.9478 35.6122 32.0357C35.6414 31.9546 35.7061 31.8736 35.801 31.7822Z" fill="#111111"/>
<path d="M41.4687 32.5207C41.4982 32.4499 41.5549 32.3679 41.6456 32.2872C41.6184 32.3621 41.5571 32.4358 41.4687 32.5207Z" fill="#111111"/>
<path d="M35.3871 32.191C35.3673 32.2449 35.3184 32.3074 35.2368 32.3734C35.2555 32.3179 35.3068 32.2587 35.3871 32.191Z" fill="#111111"/>
<path d="M35.5556 32.037C35.5507 32.0748 35.5181 32.1217 35.4535 32.1732C35.457 32.1339 35.4925 32.0901 35.5556 32.037Z" fill="#111111"/>
<path d="M32.3972 12.0788C32.3509 12.0883 32.288 12.0718 32.2164 12.0224C32.2654 12.0106 32.3229 12.0318 32.3972 12.0788Z" fill="#111111"/>
<path d="M36.1104 31.4674C36.1095 31.5113 36.0812 31.5651 36.0195 31.6176C36.0185 31.5699 36.0508 31.5237 36.1104 31.4674Z" fill="#111111"/>
<path d="M34.6317 32.8596C34.6224 32.8968 34.5837 32.9402 34.5131 32.9869C34.5215 32.9488 34.5619 32.9074 34.6317 32.8596Z" fill="#111111"/>
<path d="M35.9587 31.6277C35.9559 31.6644 35.9272 31.7122 35.8663 31.7645C35.867 31.7255 35.8999 31.6822 35.9587 31.6277Z" fill="#111111"/>
<path d="M33.9013 13.0964C33.8994 13.0962 33.9033 13.0967 33.9013 13.0964V13.0964Z" fill="#111111"/>
<path d="M40.5596 33.2128C40.5552 33.1875 40.578 33.1576 40.6311 33.1304C40.6365 33.1582 40.6117 33.1832 40.5596 33.2128Z" fill="#111111"/>
<path d="M40.9621 8.39737C40.9382 8.41019 40.9023 8.39932 40.8604 8.35945C40.8863 8.34486 40.9182 8.35928 40.9621 8.39737Z" fill="#111111"/>
<path d="M41.4825 8.80723C41.4585 8.81924 41.4229 8.80701 41.3808 8.76593C41.4066 8.75238 41.4388 8.76769 41.4825 8.80723Z" fill="#111111"/>
<path d="M16.2823 7.90123C16.319 7.94123 16.3279 7.98979 16.3368 8.03835C16.2745 8.03559 16.2122 8.03283 16.1499 8.03007C16.1848 7.98997 16.2197 7.94988 16.2823 7.90123Z" fill="#111111"/>
<path d="M15.8031 8.11957C15.8088 8.10117 15.8227 8.09502 15.8365 8.08887C15.8281 8.10319 15.8196 8.11751 15.8031 8.11957Z" fill="#111111"/>
<path d="M10.852 12.101C10.7217 12.1133 10.6222 12.1133 10.5228 12.1133C10.5205 12.0797 10.5182 12.0461 10.5159 12.0125C10.6584 12.0125 10.801 12.0125 10.9436 12.0125C10.9364 12.0271 10.9315 12.0434 10.9215 12.0558C10.9112 12.0687 10.896 12.0779 10.852 12.101Z" fill="#111111"/>
<path d="M32.9651 12.5907C32.9608 12.5928 32.9694 12.5885 32.9651 12.5907V12.5907Z" fill="#111111"/>
</svg>
